<svg width="24" height="24" viewBox="0 0 24 24" fill="none" xmlns="http://www.w3.org/2000/svg">
<g id="Icon Base">
<path id="overlay color" d="M12.0003 16.0003C11.7666 16.0008 11.5402 15.9194 11.3603 15.7703L5.3603 10.7703C4.93504 10.4168 4.87684 9.78556 5.2303 9.3603C5.58376 8.93504 6.21504 8.87684 6.6403 9.2303L12.0003 13.7103L17.3603 9.3903C17.5669 9.22253 17.8318 9.14403 18.0965 9.17218C18.3611 9.20034 18.6036 9.33282 18.7703 9.5403C18.9554 9.74816 19.0456 10.0238 19.019 10.3009C18.9924 10.5779 18.8516 10.8314 18.6303 11.0003L12.6303 15.8303C12.4452 15.9558 12.2234 16.0157 12.0003 16.0003Z" fill="#CBCBCB"/>
</g>
</svg>
