<svg width="30" height="30" viewBox="0 0 30 30" fill="none" xmlns="http://www.w3.org/2000/svg">
<path d="M28.5 22.1429V10.7143C28.5 9.13633 27.1569 7.85714 25.5 7.85714H21.75C20.9216 7.85714 20.25 7.21754 20.25 6.42857C20.25 5.6396 19.5785 5 18.75 5H11.25C10.4216 5 9.75 5.6396 9.75 6.42857C9.75 7.21754 9.07842 7.85714 8.25 7.85714H4.5C2.84315 7.85714 1.5 9.13633 1.5 10.7143V22.1429C1.5 23.7209 2.84315 25 4.5 25H25.5C27.1569 25 28.5 23.7209 28.5 22.1429Z" stroke="#CBCBCB"/>
<path d="M19.5 16.5C19.5 18.9854 17.4854 21 15 21C12.5146 21 10.5 18.9854 10.5 16.5C10.5 14.0146 12.5146 12 15 12C17.4854 12 19.5 14.0146 19.5 16.5Z" stroke="#CBCBCB"/>
</svg>
