<svg width="25" height="25" viewBox="0 0 25 25" fill="none" xmlns="http://www.w3.org/2000/svg">
<path fill-rule="evenodd" clip-rule="evenodd" d="M12.4997 1.0415C12.2234 1.0415 11.9584 1.15125 11.7631 1.3466C11.5678 1.54195 11.458 1.8069 11.458 2.08317V12.4998C11.458 13.0751 11.9244 13.5415 12.4997 13.5415H22.9163C23.4917 13.5415 23.958 13.0751 23.958 12.4998C23.958 10.9951 23.6617 9.50511 23.0858 8.11492C22.51 6.72473 21.6659 5.46158 20.602 4.39758C19.5379 3.33357 18.2748 2.48956 16.8846 1.91372C15.4944 1.33788 14.0044 1.0415 12.4997 1.0415ZM13.5413 11.4582V3.18289C14.4149 3.28056 15.2721 3.50077 16.0874 3.83846C17.2248 4.30961 18.2582 5.00016 19.1288 5.87071C19.9994 6.74126 20.6899 7.77475 21.161 8.91218C21.4987 9.72743 21.7189 10.5846 21.8167 11.4582H13.5413Z" fill="#E3E3E3"/>
<path d="M8.68079 5.68228C9.2232 5.49057 9.5075 4.89543 9.31578 4.35303C9.12406 3.81061 8.52894 3.52632 7.98652 3.71803C3.94213 5.14752 1.04199 9.00459 1.04199 13.5417C1.04199 19.2946 5.70569 23.9584 11.4587 23.9584C15.9957 23.9584 19.8528 21.0583 21.2823 17.0138C21.4741 16.4714 21.1897 15.8763 20.6473 15.6845C20.1049 15.4928 19.5098 15.7771 19.318 16.3195C18.1736 19.5576 15.0854 21.875 11.4587 21.875C6.85628 21.875 3.12533 18.1441 3.12533 13.5417C3.12533 9.91494 5.44274 6.82677 8.68079 5.68228Z" fill="#E3E3E3"/>
</svg>
