<svg width="800" height="800" viewBox="0 0 800 800" fill="none" xmlns="http://www.w3.org/2000/svg">
<path fill-rule="evenodd" clip-rule="evenodd" d="M175.001 14.5833C130.703 14.5833 94.793 50.4938 94.793 94.7917C94.793 139.09 130.703 175 175.001 175C219.3 175 255.21 139.09 255.21 94.7917C255.21 50.4938 219.3 14.5833 175.001 14.5833ZM123.96 94.7917C123.96 66.6021 146.812 43.75 175.001 43.75C203.191 43.75 226.043 66.6021 226.043 94.7917C226.043 122.981 203.191 145.833 175.001 145.833C146.812 145.833 123.96 122.981 123.96 94.7917Z" fill="white"/>
<path d="M116.668 204.167C68.343 204.167 29.168 243.342 29.168 291.667V320.833C29.168 328.888 35.6972 335.417 43.7513 335.417C51.8054 335.417 58.3346 328.888 58.3346 320.833V291.667C58.3346 259.451 84.4513 233.333 116.668 233.333H233.335C265.551 233.333 291.668 259.451 291.668 291.667V320.833C291.668 328.888 298.197 335.417 306.251 335.417C314.306 335.417 320.835 328.888 320.835 320.833V291.667C320.835 243.342 281.659 204.167 233.335 204.167H116.668Z" fill="white"/>
<path fill-rule="evenodd" clip-rule="evenodd" d="M625.001 464.583C580.703 464.583 544.793 500.494 544.793 544.792C544.793 589.09 580.703 625 625.001 625C669.3 625 705.21 589.09 705.21 544.792C705.21 500.494 669.3 464.583 625.001 464.583ZM573.96 544.792C573.96 516.602 596.812 493.75 625.001 493.75C653.191 493.75 676.043 516.602 676.043 544.792C676.043 572.981 653.191 595.833 625.001 595.833C596.812 595.833 573.96 572.981 573.96 544.792Z" fill="white"/>
<path d="M566.668 654.167C518.343 654.167 479.168 693.342 479.168 741.667V770.833C479.168 778.888 485.697 785.417 493.751 785.417C501.805 785.417 508.335 778.888 508.335 770.833V741.667C508.335 709.451 534.451 683.333 566.668 683.333H683.335C715.551 683.333 741.668 709.451 741.668 741.667V770.833C741.668 778.888 748.197 785.417 756.251 785.417C764.306 785.417 770.835 778.888 770.835 770.833V741.667C770.835 693.342 731.659 654.167 683.335 654.167H566.668Z" fill="white"/>
<path d="M344.504 107.827C385.723 99.9131 428.152 100.826 468.993 110.506C509.834 120.185 548.16 138.412 581.444 163.983C614.727 189.554 642.213 221.889 662.089 258.858C681.965 295.826 693.779 336.587 696.753 378.454" stroke="white" stroke-width="21"/>
<path d="M412.395 696.262C370.451 697.943 328.628 690.714 289.682 675.052C250.737 659.39 215.554 635.649 186.453 605.397C157.352 575.144 134.995 539.067 120.855 499.543C106.715 460.019 101.115 417.947 104.422 376.1" stroke="white" stroke-width="21"/>
</svg>
