<svg width="25" height="25" viewBox="0 0 25 25" fill="none" xmlns="http://www.w3.org/2000/svg">
<path d="M17.1862 13.5417C17.7615 13.5417 18.2279 13.0753 18.2279 12.5C18.2279 11.9247 17.7615 11.4583 17.1862 11.4583H13.5404V5.72917C13.5404 5.15387 13.074 4.6875 12.4987 4.6875C11.9234 4.6875 11.457 5.15387 11.457 5.72917V12.5C11.457 13.0753 11.9234 13.5417 12.4987 13.5417H17.1862Z" fill="#E3E3E3"/>
<path fill-rule="evenodd" clip-rule="evenodd" d="M12.4974 1C6.16914 1 1.03906 6.13007 1.03906 12.4583C1.03906 18.7866 6.16914 23.9167 12.4974 23.9167C18.8256 23.9167 23.9557 18.7866 23.9557 12.4583C23.9557 6.13007 18.8256 1 12.4974 1ZM3.1224 12.4583C3.1224 7.28067 7.31973 3.08333 12.4974 3.08333C17.6751 3.08333 21.8724 7.28067 21.8724 12.4583C21.8724 17.636 17.6751 21.8333 12.4974 21.8333C7.31973 21.8333 3.1224 17.636 3.1224 12.4583Z" fill="#E3E3E3"/>
</svg>
