<svg width="25" height="25" viewBox="0 0 25 25" fill="none" xmlns="http://www.w3.org/2000/svg">
<path fill-rule="evenodd" clip-rule="evenodd" d="M4.16699 4.16671C3.89072 4.16671 3.62577 4.27646 3.43042 4.4718C3.23508 4.66716 3.12533 4.9321 3.12533 5.20837V19.7917C3.12533 20.068 3.23508 20.333 3.43042 20.5283C3.62577 20.7236 3.89072 20.8334 4.16699 20.8334H20.8337C21.1099 20.8334 21.3749 20.7236 21.5702 20.5283C21.7655 20.333 21.8753 20.068 21.8753 19.7917V8.33337C21.8753 8.0571 21.7655 7.79216 21.5702 7.5968C21.3749 7.40146 21.1099 7.29171 20.8337 7.29171H12.0162C11.3196 7.29171 10.6691 6.94358 10.2827 6.364L8.81785 4.16671H4.16699ZM1.95728 2.99867C2.54334 2.41261 3.33819 2.08337 4.16699 2.08337H8.81785C9.51441 2.08337 10.1649 2.4315 10.5513 3.01108L12.0162 5.20837H20.8337C21.6625 5.20837 22.4573 5.53761 23.0433 6.12367C23.6294 6.70972 23.9587 7.50457 23.9587 8.33337V19.7917C23.9587 20.6206 23.6294 21.4154 23.0433 22.0014C22.4573 22.5874 21.6625 22.9167 20.8337 22.9167H4.16699C3.33819 22.9167 2.54334 22.5874 1.95728 22.0014C1.37123 21.4154 1.04199 20.6206 1.04199 19.7917V5.20837C1.04199 4.37957 1.37123 3.58472 1.95728 2.99867Z" fill="#E3E3E3"/>
</svg>
