<svg width="25" height="25" viewBox="0 0 25 25" fill="none" xmlns="http://www.w3.org/2000/svg">
<path fill-rule="evenodd" clip-rule="evenodd" d="M4.1665 3.12484C3.59121 3.12484 3.12484 3.59121 3.12484 4.1665V15.6248C3.12484 16.2001 3.59121 16.6665 4.1665 16.6665H7.2915C7.8668 16.6665 8.33317 17.1329 8.33317 17.7082V20.6925L12.8746 16.908C13.0618 16.7519 13.2979 16.6665 13.5415 16.6665H20.8332C21.4085 16.6665 21.8748 16.2001 21.8748 15.6248V4.1665C21.8748 3.59121 21.4085 3.12484 20.8332 3.12484H4.1665ZM1.0415 4.1665C1.0415 2.44062 2.44062 1.0415 4.1665 1.0415H20.8332C22.5591 1.0415 23.9582 2.44062 23.9582 4.1665V15.6248C23.9582 17.3508 22.5591 18.7498 20.8332 18.7498H13.9186L7.95836 23.7167C7.64786 23.9755 7.2157 24.0313 6.84967 23.8598C6.48365 23.6884 6.24984 23.3207 6.24984 22.9165V18.7498H4.1665C2.44062 18.7498 1.0415 17.3508 1.0415 15.6248V4.1665Z" fill="#E3E3E3"/>
</svg>
