<svg width="30" height="30" viewBox="0 0 30 30" fill="none" xmlns="http://www.w3.org/2000/svg">
<path d="M2.95188 6.60847C7.27284 0.855612 16.2183 -0.818388 22.5863 3.14095C28.8743 7.05055 31.1869 14.5672 28.6114 21.6198C26.1796 28.2791 19.7722 30.9177 15.1539 27.5678C13.424 26.3129 12.7534 24.7399 12.4292 22.1848L12.2744 20.7333L12.2077 20.1494C12.0275 18.7771 11.7507 18.1623 11.1729 17.8402C10.386 17.4016 9.862 17.3914 8.82875 17.7918L8.31289 18.0057L8.05029 18.1202C6.56084 18.7671 5.57002 18.9944 4.31679 18.7318L4.02257 18.6624L3.78231 18.594C-0.315277 17.3243 -0.922193 11.7663 2.95188 6.60847ZM4.39791 16.4763L4.57848 16.5299L4.77528 16.5752C5.42037 16.703 5.9717 16.5964 6.88657 16.2199L7.77129 15.8419C9.5375 15.1177 10.688 15.0469 12.2458 15.9152C13.5939 16.6667 14.1194 17.8217 14.3874 19.8228L14.4656 20.4974L14.5452 21.2786L14.6144 21.8992C14.8673 23.8992 15.3269 24.9706 16.4479 25.7838C19.7909 28.2087 24.5792 26.2369 26.5413 20.8638C28.769 14.7634 26.7971 8.35416 21.4226 5.01251C16.0245 1.65615 8.34896 3.09249 4.71401 7.932C1.6657 11.9905 2.03958 15.6888 4.39791 16.4763ZM20.8891 13.5462C20.6266 12.5665 21.208 11.5595 22.1877 11.2969C23.1674 11.0344 24.1744 11.6158 24.437 12.5956C24.6995 13.5753 24.1181 14.5823 23.1383 14.8448C22.1586 15.1073 21.1516 14.5259 20.8891 13.5462ZM21.6157 18.6718C21.3532 17.6921 21.9346 16.6851 22.9143 16.4225C23.8941 16.16 24.9011 16.7414 25.1636 17.7212C25.4261 18.7009 24.8447 19.7079 23.865 19.9704C22.8853 20.2329 21.8782 19.6515 21.6157 18.6718ZM17.9822 9.13463C17.7197 8.15491 18.3011 7.14788 19.2808 6.88537C20.2606 6.62285 21.2676 7.20426 21.5301 8.18398C21.7926 9.1637 21.2112 10.1707 20.2315 10.4332C19.2518 10.6958 18.2447 10.1143 17.9822 9.13463ZM17.9404 22.3552C17.6779 21.3755 18.2593 20.3684 19.239 20.1059C20.2187 19.8434 21.2257 20.4248 21.4883 21.4045C21.7508 22.3842 21.1694 23.3913 20.1896 23.6538C19.2099 23.9163 18.2029 23.3349 17.9404 22.3552ZM12.8027 7.70715C12.5401 6.72743 13.1215 5.7204 14.1013 5.45789C15.081 5.19537 16.088 5.77678 16.3505 6.7565C16.613 7.73622 16.0316 8.74325 15.0519 9.00576C14.0722 9.26828 13.0652 8.68687 12.8027 7.70715Z" fill="white"/>
</svg>
