<svg width="24" height="24" viewBox="0 0 24 24" fill="none" xmlns="http://www.w3.org/2000/svg">
<path d="M13.4286 12C14.3758 12 15.2842 11.6049 15.954 10.9017C16.6237 10.1984 17 9.24456 17 8.25C17 7.25544 16.6237 6.30161 15.954 5.59835C15.2842 4.89509 14.3758 4.5 13.4286 4.5H9.85714C9.6677 4.5 9.48602 4.57902 9.35207 4.71967C9.21811 4.86032 9.14286 5.05109 9.14286 5.25V10.5H7.71429C7.52485 10.5 7.34316 10.579 7.20921 10.7197C7.07526 10.8603 7 11.0511 7 11.25C7 11.4489 7.07526 11.6397 7.20921 11.7803C7.34316 11.921 7.52485 12 7.71429 12H9.14286V13.5H7.71429C7.52485 13.5 7.34316 13.579 7.20921 13.7197C7.07526 13.8603 7 14.0511 7 14.25C7 14.4489 7.07526 14.6397 7.20921 14.7803C7.34316 14.921 7.52485 15 7.71429 15H9.14286V18.75C9.14286 18.9489 9.21811 19.1397 9.35207 19.2803C9.48602 19.421 9.6677 19.5 9.85714 19.5C10.0466 19.5 10.2283 19.421 10.3622 19.2803C10.4962 19.1397 10.5714 18.9489 10.5714 18.75V15H14.1429C14.3323 15 14.514 14.921 14.6479 14.7803C14.7819 14.6397 14.8571 14.4489 14.8571 14.25C14.8571 14.0511 14.7819 13.8603 14.6479 13.7197C14.514 13.579 14.3323 13.5 14.1429 13.5H10.5714V12H13.4286ZM10.5714 6H13.4286C13.9969 6 14.5419 6.23705 14.9438 6.65901C15.3457 7.08097 15.5714 7.65326 15.5714 8.25C15.5714 8.84674 15.3457 9.41903 14.9438 9.84099C14.5419 10.2629 13.9969 10.5 13.4286 10.5H10.5714V6Z" fill="#CBCBCB"/>
</svg>
