<svg width="25" height="25" viewBox="0 0 25 25" fill="none" xmlns="http://www.w3.org/2000/svg">
<path fill-rule="evenodd" clip-rule="evenodd" d="M12.5001 8.3335C10.199 8.3335 8.3335 10.199 8.3335 12.5002C8.3335 14.8013 10.199 16.6668 12.5001 16.6668C14.8014 16.6668 16.6668 14.8013 16.6668 12.5002C16.6668 10.199 14.8014 8.3335 12.5001 8.3335ZM10.4168 12.5002C10.4168 11.3495 11.3496 10.4168 12.5001 10.4168C13.6507 10.4168 14.5835 11.3495 14.5835 12.5002C14.5835 13.6508 13.6507 14.5835 12.5001 14.5835C11.3496 14.5835 10.4168 13.6508 10.4168 12.5002Z" fill="#E3E3E3"/>
<path fill-rule="evenodd" clip-rule="evenodd" d="M11.7568 0.520996C10.2976 0.520996 9.00619 1.52876 8.72037 2.97521L8.638 3.39206C8.44243 4.38181 7.35603 5.03203 6.29683 4.6753L5.88343 4.53607C4.5024 4.07095 2.95685 4.61441 2.20646 5.87446L1.4633 7.1224C0.705805 8.39439 0.99395 10.0052 2.12408 10.9525L2.45519 11.23C3.25962 11.9042 3.25962 13.0961 2.45519 13.7704L2.12408 14.0479C0.99395 14.9951 0.705805 16.6059 1.4633 17.8779L2.20643 19.1258C2.95684 20.3859 4.50244 20.9293 5.88349 20.4642L6.29677 20.325C7.35599 19.9682 8.44244 20.6184 8.638 21.6082L8.72038 22.0251C9.00619 23.4715 10.2976 24.4793 11.7568 24.4793H13.2432C14.7025 24.4793 15.9939 23.4715 16.2797 22.025L16.362 21.6083C16.5575 20.6185 17.644 19.9682 18.7033 20.325L19.1166 20.4642C20.4977 20.9293 22.0433 20.3859 22.7937 19.1258L23.5368 17.878C24.2943 16.606 24.0061 14.9951 22.876 14.0479L22.5448 13.7704C21.7404 13.0962 21.7404 11.9041 22.5448 11.23L22.876 10.9525C24.0061 10.0053 24.2943 8.39438 23.5368 7.12237L22.7937 5.87445C22.0433 4.61441 20.4978 4.07094 19.1167 4.53604L18.7032 4.67531C17.644 5.03203 16.5575 4.38177 16.362 3.39201L16.2797 2.97533C15.9939 1.52882 14.7025 0.520996 13.2432 0.520996H11.7568ZM10.7642 3.37907C10.8487 2.95156 11.2481 2.60433 11.7568 2.60433H13.2432C13.752 2.60433 14.1514 2.95158 14.2359 3.3791L14.3182 3.79578C14.7697 6.08153 17.1779 7.38732 19.3681 6.64967L19.7816 6.51041C20.2597 6.3494 20.77 6.54803 21.0037 6.94041L21.7468 8.18833C21.9734 8.56878 21.8965 9.05507 21.5378 9.35573L21.2067 9.63321C19.4087 11.1401 19.4087 13.8603 21.2067 15.3671L21.5378 15.6445C21.8965 15.9453 21.9734 16.4315 21.7468 16.812L21.0037 18.0598C20.77 18.4522 20.2597 18.6509 19.7816 18.4898L19.3682 18.3506C17.1779 17.6129 14.7697 18.9187 14.3182 21.2045L14.2359 21.6212C14.1514 22.0487 13.752 22.396 13.2432 22.396H11.7568C11.2481 22.396 10.8487 22.0488 10.7642 21.6212L10.6818 21.2043C10.2302 18.9186 7.82203 17.6129 5.63176 18.3507L5.21848 18.4898C4.74038 18.6509 4.23009 18.4522 3.99641 18.0598L3.25327 16.8119C3.02671 16.4315 3.10358 15.9453 3.46232 15.6445L3.79343 15.367C5.59132 13.8602 5.59131 11.1402 3.79343 9.63328L3.46232 9.35576C3.10358 9.05509 3.02671 8.56881 3.25327 8.18836L3.99644 6.94043C4.23011 6.54804 4.74039 6.34941 5.21848 6.51043L5.63188 6.64966C7.82211 7.38731 10.2302 6.08161 10.6818 3.79591L10.7642 3.37907Z" fill="#E3E3E3"/>
</svg>
