<svg width="27" height="27" viewBox="0 0 27 27" fill="none" xmlns="http://www.w3.org/2000/svg">
<g clip-path="url(#clip0_967_18914)">
<mask id="mask0_967_18914" style="mask-type:luminance" maskUnits="userSpaceOnUse" x="0" y="0" width="27" height="27">
<path d="M27 0H0V27H27V0Z" fill="white"/>
</mask>
<g mask="url(#mask0_967_18914)">
<path fill-rule="evenodd" clip-rule="evenodd" d="M10.125 0C6.70773 0 3.9375 2.77023 3.9375 6.1875C3.9375 9.60477 6.70773 12.375 10.125 12.375C13.5423 12.375 16.3125 9.60477 16.3125 6.1875C16.3125 2.77023 13.5423 0 10.125 0ZM6.1875 6.1875C6.1875 4.01288 7.95038 2.25 10.125 2.25C12.2996 2.25 14.0625 4.01288 14.0625 6.1875C14.0625 8.36213 12.2996 10.125 10.125 10.125C7.95038 10.125 6.1875 8.36213 6.1875 6.1875Z" fill="white"/>
<path d="M17.4375 0C16.8162 0 16.3125 0.503679 16.3125 1.125C16.3125 1.74632 16.8162 2.25 17.4375 2.25C19.6121 2.25 21.375 4.01288 21.375 6.1875C21.375 8.36213 19.6121 10.125 17.4375 10.125C16.8162 10.125 16.3125 10.6287 16.3125 11.25C16.3125 11.8713 16.8162 12.375 17.4375 12.375C20.8548 12.375 23.625 9.60477 23.625 6.1875C23.625 2.77023 20.8548 0 17.4375 0Z" fill="white"/>
<path d="M21.4694 15.7677C21.7182 15.1983 22.3814 14.9384 22.9507 15.1872C25.3324 16.2277 27.0003 18.6052 27.0003 21.375V23.625C27.0003 24.2463 26.4966 24.75 25.8753 24.75C25.2539 24.75 24.7503 24.2463 24.7503 23.625V21.375C24.7503 19.5315 23.6416 17.9443 22.0498 17.2489C21.4805 17.0002 21.2206 16.3369 21.4694 15.7677Z" fill="white"/>
<path d="M6.75 14.625C3.02208 14.625 0 17.6471 0 21.375V23.625C0 24.2463 0.503679 24.75 1.125 24.75C1.74632 24.75 2.25 24.2463 2.25 23.625V21.375C2.25 18.8898 4.26472 16.875 6.75 16.875H13.5C15.9852 16.875 18 18.8898 18 21.375V23.625C18 24.2463 18.5037 24.75 19.125 24.75C19.7463 24.75 20.25 24.2463 20.25 23.625V21.375C20.25 17.6471 17.2279 14.625 13.5 14.625H6.75Z" fill="white"/>
</g>
</g>
<defs>
<clipPath id="clip0_967_18914">
<rect width="27" height="27" fill="white"/>
</clipPath>
</defs>
</svg>
