<svg width="19" height="14" viewBox="0 0 19 14" fill="none" xmlns="http://www.w3.org/2000/svg">
<path d="M18.0326 5.77469C18.2546 6.05155 18.3776 6.41124 18.3776 6.78419C18.3776 7.15714 18.2546 7.51683 18.0326 7.79369C16.6263 9.49628 13.4254 12.811 9.68881 12.811C5.9522 12.811 2.75131 9.49628 1.34505 7.79369C1.12295 7.51683 1 7.15714 1 6.78419C1 6.41124 1.12295 6.05155 1.34505 5.77469C2.75131 4.0721 5.9522 0.757324 9.68881 0.757324C13.4254 0.757324 16.6263 4.0721 18.0326 5.77469Z" stroke="#454444" stroke-linecap="round" stroke-linejoin="round"/>
<path d="M10.0001 9.77436C11.5324 9.77436 12.7746 8.53217 12.7746 6.99985C12.7746 5.46753 11.5324 4.22534 10.0001 4.22534C8.46778 4.22534 7.22559 5.46753 7.22559 6.99985C7.22559 8.53217 8.46778 9.77436 10.0001 9.77436Z" stroke="#454444" stroke-linecap="round" stroke-linejoin="round"/>
</svg>
