<svg width="42" height="42" viewBox="0 0 42 42" fill="none" xmlns="http://www.w3.org/2000/svg">
<path d="M21 0C9.40187 0 0 9.40187 0 21C0 32.5981 9.40187 42 21 42C32.5981 42 42 32.5981 42 21C42 9.40187 32.5981 0 21 0ZM29.0763 23.6928C29.0763 23.6928 30.9334 25.5259 31.3906 26.3769C31.4037 26.3944 31.4103 26.4119 31.4147 26.4206C31.6006 26.7334 31.6444 26.9762 31.5525 27.1578C31.3994 27.4597 30.8744 27.6084 30.695 27.6216H27.4138C27.1863 27.6216 26.7094 27.5625 26.1319 27.1644C25.6878 26.8538 25.2503 26.3441 24.8238 25.8475C24.1872 25.1081 23.6359 24.4694 23.0803 24.4694C23.0097 24.4693 22.9396 24.4803 22.8725 24.5022C22.4525 24.6378 21.9144 25.2372 21.9144 26.8341C21.9144 27.3328 21.5206 27.6194 21.2428 27.6194H19.74C19.2281 27.6194 16.5616 27.44 14.1991 24.9484C11.3072 21.8969 8.70406 15.7762 8.68219 15.7194C8.51812 15.3234 8.85719 15.1112 9.22688 15.1112H12.5409C12.9828 15.1112 13.1272 15.3803 13.2278 15.6187C13.3459 15.8966 13.7791 17.0012 14.49 18.2437C15.6428 20.2694 16.3494 21.0919 16.9159 21.0919C17.0222 21.0906 17.1265 21.0636 17.22 21.0131C17.9594 20.6019 17.8216 17.9659 17.7887 17.4191C17.7887 17.3162 17.7866 16.24 17.4081 15.7237C17.1369 15.3497 16.6753 15.2075 16.3953 15.155C16.5086 14.9986 16.658 14.8718 16.8306 14.7853C17.3381 14.5316 18.2525 14.4944 19.1603 14.4944H19.6656C20.65 14.5075 20.9038 14.5709 21.2603 14.6606C21.9822 14.8334 21.9975 15.2994 21.9341 16.8941C21.9144 17.3469 21.8947 17.8588 21.8947 18.4625C21.8947 18.5938 21.8881 18.7337 21.8881 18.8825C21.8663 19.6941 21.84 20.615 22.4131 20.9934C22.4879 21.0403 22.5743 21.0653 22.6625 21.0656C22.8616 21.0656 23.4609 21.0656 25.0841 18.2809C25.5846 17.3846 26.0196 16.4532 26.3856 15.4941C26.4184 15.4372 26.5147 15.2622 26.6284 15.1944C26.7124 15.1516 26.8055 15.1298 26.8997 15.1309H30.7956C31.22 15.1309 31.5109 15.1944 31.5656 15.3584C31.6619 15.6187 31.5481 16.4128 29.7697 18.8213L28.9756 19.8691C27.3634 21.9822 27.3634 22.0894 29.0763 23.6928Z" fill="#BBBBBB"/>
</svg>
