<svg width="15" height="22" viewBox="0 0 15 22" fill="none" xmlns="http://www.w3.org/2000/svg">
<path d="M14.6667 22H10.8201V2.96296H8.90919C7.01423 2.96296 6.40038 3.49383 6.17936 3.58025C5.95833 3.66667 4.36988 4.68648 4.26847 6.32099C4.14439 8.32099 4.66554 9.58025 5.60857 10.6667C6.363 11.5358 8.65275 13.0535 9.70333 13.7037L4.1692 22H0C1.65445 19.5144 4.96334 14.5481 4.96334 14.5679C4.96334 14.5926 2.29379 12.7099 1.36492 10.9383C0.436048 9.16667 -0.292555 6.76766 1.36492 3.58025C2.75 0.916667 5.5 0 7.71799 0H14.6667V22Z" fill="white"/>
</svg>
