<svg width="1920" height="670" viewBox="0 0 1920 670" fill="none" xmlns="http://www.w3.org/2000/svg">
<path d="M367.5 435.5C213.905 473.189 110.2 507.1 -63 709.5L-37 722.5L1912.5 798C1950.83 475.333 2008.2 -130.9 1931 25.5C1834.5 221 1518.5 307.5 1328 289C1137.5 270.5 996.5 265.5 934 289C884 307.8 665 362.5 367.5 435.5Z" fill="url(#paint0_linear_68_2438)"/>
<path d="M367.5 534.323C213.905 572.012 110.2 605.923 -63 808.323L-37 821.323L1912.5 896.823C1950.83 574.156 2008.2 -32.0772 1931 124.323C1834.5 319.823 1518.5 406.323 1328 387.823C1137.5 369.323 996.5 364.323 934 387.823C884 406.623 665 461.323 367.5 534.323Z" fill="url(#paint1_linear_68_2438)"/>
<path d="M466.5 593.323C312.905 631.012 209.2 664.923 36 867.323L62 880.323L2011.5 955.823C2049.83 633.156 2107.2 26.9228 2030 183.323C1933.5 378.823 1617.5 465.323 1427 446.823C1236.5 428.323 1095.5 423.323 1033 446.823C983 465.623 764 520.323 466.5 593.323Z" fill="url(#paint2_linear_68_2438)"/>
<path d="M636.5 663.323C482.905 701.012 379.2 734.923 206 937.323L232 950.323L2181.5 1025.82C2219.83 703.156 2277.2 96.9228 2200 253.323C2103.5 448.823 1787.5 535.323 1597 516.823C1406.5 498.323 1265.5 493.323 1203 516.823C1153 535.623 934 590.323 636.5 663.323Z" fill="url(#paint3_linear_68_2438)"/>
<path d="M793.5 736.323C639.905 774.012 536.2 807.923 363 1010.32L389 1023.32L2338.5 1098.82C2376.83 776.156 2434.2 169.923 2357 326.323C2260.5 521.823 1944.5 608.323 1754 589.823C1563.5 571.323 1422.5 566.323 1360 589.823C1310 608.623 1091 663.323 793.5 736.323Z" fill="url(#paint4_linear_68_2438)"/>
<defs>
<linearGradient id="paint0_linear_68_2438" x1="889.5" y1="138" x2="953.112" y2="798" gradientUnits="userSpaceOnUse">
<stop stop-color="#EAF357"/>
<stop offset="1" stop-color="#D9D9D9" stop-opacity="0"/>
</linearGradient>
<linearGradient id="paint1_linear_68_2438" x1="889.5" y1="236.823" x2="953.112" y2="896.823" gradientUnits="userSpaceOnUse">
<stop stop-color="#EAF357"/>
<stop offset="1" stop-color="#D9D9D9" stop-opacity="0"/>
</linearGradient>
<linearGradient id="paint2_linear_68_2438" x1="988.5" y1="295.823" x2="1052.11" y2="955.823" gradientUnits="userSpaceOnUse">
<stop stop-color="#EAF357"/>
<stop offset="1" stop-color="#D9D9D9" stop-opacity="0"/>
</linearGradient>
<linearGradient id="paint3_linear_68_2438" x1="1158.5" y1="365.823" x2="1222.11" y2="1025.82" gradientUnits="userSpaceOnUse">
<stop stop-color="#EAF357"/>
<stop offset="1" stop-color="#D9D9D9" stop-opacity="0"/>
</linearGradient>
<linearGradient id="paint4_linear_68_2438" x1="1315.5" y1="438.823" x2="1379.11" y2="1098.82" gradientUnits="userSpaceOnUse">
<stop stop-color="#EAF357"/>
<stop offset="1" stop-color="#D9D9D9" stop-opacity="0"/>
</linearGradient>
</defs>
</svg>
